<?xml version="1.0" standalone="no"?>
<!DOCTYPE svg PUBLIC "-//W3C//DTD SVG 20010904//EN"
 "http://www.w3.org/TR/2001/REC-SVG-20010904/DTD/svg10.dtd">
<svg version="1.0" xmlns="http://www.w3.org/2000/svg"
 width="1000.000000pt" height="1000.000000pt" viewBox="0 0 1000.000000 1000.000000"
 preserveAspectRatio="xMidYMid meet">
<metadata>
Created by potrace 1.11, written by Peter Selinger 2001-2013
</metadata>
<g transform="translate(0.000000,1000.000000) scale(0.100000,-0.100000)"
fill="#000000" stroke="none">
<path d="M4958 9993 c27 -5 27 -13 2 -64 -12 -22 -29 -72 -39 -112 -10 -40
-37 -110 -59 -157 -22 -47 -44 -101 -50 -120 -6 -19 -22 -62 -36 -95 -13 -33
-34 -111 -46 -174 -12 -63 -30 -131 -40 -151 -11 -21 -35 -92 -55 -159 -22
-75 -48 -141 -68 -171 -42 -64 -101 -160 -106 -174 -21 -58 -71 -148 -154
-274 -20 -31 -42 -72 -48 -90 -6 -19 -29 -61 -52 -95 -22 -34 -72 -127 -110
-207 -38 -80 -82 -161 -98 -181 -16 -20 -29 -42 -29 -48 0 -17 -44 -100 -74
-140 -14 -19 -37 -70 -52 -115 -15 -45 -35 -98 -45 -118 -70 -140 -148 -547
-154 -809 -5 -192 -16 -228 -72 -229 -24 0 -83 54 -113 103 -21 33 -69 93
-116 141 -18 18 -67 50 -110 71 -44 21 -93 49 -110 62 -17 13 -62 38 -100 57
-38 18 -87 45 -108 60 -22 14 -61 33 -88 41 -27 8 -75 30 -107 50 -32 19 -64
35 -70 35 -6 0 -20 9 -30 19 -11 11 -59 46 -108 79 -98 66 -218 180 -303 286
-85 107 -190 254 -190 266 0 5 -3 10 -7 10 -27 0 -193 220 -193 254 0 7 -25
54 -55 104 -30 50 -55 94 -55 97 0 2 -22 42 -49 87 -27 46 -64 125 -82 176
-30 89 -54 124 -112 169 -8 7 -21 38 -27 70 -13 66 -58 163 -75 163 -6 0 -26
-29 -44 -64 -46 -93 -45 -139 6 -246 42 -87 53 -120 73 -225 6 -33 36 -109 66
-170 29 -60 62 -144 73 -186 10 -42 30 -99 45 -125 14 -27 32 -67 40 -89 7
-22 32 -81 54 -130 22 -50 47 -122 56 -160 38 -165 57 -236 90 -330 37 -106
61 -229 70 -360 12 -168 16 -213 22 -318 3 -60 10 -123 15 -140 5 -18 18 -126
29 -242 26 -271 42 -355 86 -452 20 -43 47 -112 61 -153 24 -73 54 -131 80
-158 7 -7 16 -25 19 -40 4 -15 19 -40 34 -57 15 -16 30 -38 34 -49 3 -10 22
-44 42 -75 69 -110 141 -236 148 -258 7 -22 4 -23 -37 -23 -42 0 -83 10 -172
43 -22 9 -72 18 -110 21 -39 4 -83 11 -100 16 -45 13 -167 19 -540 25 -425 6
-677 14 -735 21 -132 16 -276 62 -338 110 -27 20 -66 37 -100 45 -31 6 -89 24
-128 40 -87 35 -120 36 -165 6 -33 -22 -34 -24 -37 -103 -3 -78 -2 -79 25 -92
62 -27 121 -69 180 -128 54 -54 76 -67 166 -102 62 -25 128 -43 167 -47 80 -8
141 -36 189 -87 20 -21 44 -38 53 -38 32 0 89 -34 94 -56 6 -22 25 -35 80 -52
17 -5 61 -31 98 -56 37 -25 73 -46 80 -46 8 0 19 -7 26 -14 6 -8 32 -25 57
-37 26 -12 76 -50 112 -84 36 -34 97 -83 136 -109 38 -26 77 -59 85 -75 23
-44 64 -87 98 -105 17 -9 52 -38 79 -65 26 -27 64 -55 83 -63 20 -8 55 -36 80
-62 24 -25 47 -46 51 -46 14 0 116 -53 170 -88 30 -21 85 -56 121 -80 66 -43
98 -78 98 -107 0 -18 -57 -43 -130 -56 -50 -10 -120 -44 -120 -60 0 -4 -26
-19 -58 -34 -31 -14 -77 -48 -102 -73 -25 -26 -72 -69 -105 -96 -33 -27 -90
-80 -128 -117 -37 -37 -75 -70 -85 -74 -9 -3 -26 -20 -37 -37 -12 -19 -48 -47
-90 -69 -59 -32 -73 -45 -92 -85 -27 -55 -29 -82 -9 -109 13 -18 30 -20 168
-23 93 -2 172 -8 203 -17 28 -8 69 -19 93 -25 40 -10 58 -30 27 -30 -8 0 -22
-11 -30 -24 -21 -32 -42 -35 -320 -41 -231 -5 -375 -16 -460 -35 -111 -26
-520 -29 -630 -6 -38 8 -104 17 -145 20 -187 15 -227 19 -252 27 l-28 8 1
-132 c1 -73 3 -124 6 -115 4 16 6 16 28 2 57 -37 179 -45 750 -49 l550 -4 94
25 c52 14 115 36 140 49 50 26 139 40 311 50 65 4 113 12 127 20 12 8 55 28
95 44 60 23 93 29 183 33 81 4 122 11 155 26 33 15 100 27 245 42 200 21 229
27 402 81 51 16 102 29 113 29 11 0 52 11 90 24 38 14 113 30 167 36 61 7 118
21 151 36 60 28 111 40 197 49 33 3 71 8 85 11 137 26 150 19 150 -75 0 -73
-6 -84 -74 -136 l-34 -26 -1 -96 c-1 -53 -8 -122 -16 -152 -7 -31 -19 -101
-25 -156 -6 -55 -15 -120 -20 -145 -5 -25 -12 -79 -15 -120 -4 -41 -11 -93
-16 -115 -18 -82 4 -463 32 -551 5 -16 11 -66 12 -110 4 -75 19 -162 38 -212
5 -13 9 -49 9 -82 0 -32 5 -71 11 -87 12 -32 67 -93 84 -93 7 0 24 -14 39 -31
24 -27 33 -30 63 -26 19 4 48 19 66 36 17 17 38 31 47 31 28 0 99 58 117 95 9
19 26 36 39 39 13 4 30 18 39 34 9 15 35 41 57 57 39 29 118 136 118 160 0 6
8 20 18 31 33 37 60 99 67 156 8 65 36 118 63 118 25 0 46 -25 71 -82 13 -30
30 -52 50 -62 16 -9 33 -26 37 -38 3 -13 30 -46 58 -74 67 -68 83 -87 106
-132 11 -20 52 -73 91 -117 39 -44 78 -95 86 -114 17 -40 26 -49 75 -79 20
-13 40 -32 43 -43 4 -10 21 -25 39 -33 18 -7 57 -35 87 -60 30 -26 59 -51 65
-56 7 -5 14 -13 15 -17 7 -16 131 -93 150 -93 11 0 40 -20 65 -45 l45 -45 163
0 164 0 6 44 c23 151 -3 793 -40 994 -18 98 -12 139 22 152 28 11 68 -1 82
-26 8 -15 42 -30 167 -74 57 -20 139 -59 236 -113 72 -39 46 -35 409 -64 143
-12 512 -3 595 13 17 4 122 7 235 7 183 0 211 -2 260 -20 102 -38 225 -93 271
-122 25 -15 58 -31 74 -35 16 -4 42 -18 58 -32 16 -13 57 -38 91 -55 37 -18
81 -51 112 -85 42 -45 56 -54 85 -54 31 0 37 -4 47 -34 19 -51 178 -210 227
-226 22 -7 58 -28 81 -46 48 -40 102 -60 204 -78 64 -11 83 -11 125 2 57 16
74 28 85 57 11 31 -6 56 -63 95 -29 19 -66 48 -82 65 -39 40 -110 81 -155 89
-20 3 -60 22 -90 41 -30 19 -63 35 -73 35 -30 0 -138 57 -187 97 -50 42 -146
138 -200 200 -19 22 -57 56 -85 76 -27 20 -74 64 -104 98 -30 34 -82 84 -115
111 -59 50 -94 99 -163 230 -19 38 -42 68 -49 68 -8 0 -19 11 -23 24 -5 12
-26 33 -46 45 -25 15 -43 37 -60 74 -12 29 -38 75 -56 101 -60 85 -125 187
-182 286 -18 30 -42 60 -55 66 -21 11 -63 47 -95 82 -16 18 -79 81 -232 231
-49 49 -103 96 -118 106 l-28 18 21 22 c11 12 20 26 20 32 0 11 16 18 182 78
43 15 89 38 103 51 15 13 32 24 39 24 8 0 37 16 66 36 29 20 76 44 104 54 69
24 107 43 190 99 79 52 221 131 345 192 47 22 114 65 150 95 36 30 71 54 77
54 6 0 17 7 24 15 7 8 43 35 80 60 66 44 140 115 140 135 0 6 11 10 24 10 23
0 61 26 111 75 12 11 34 31 51 45 16 14 34 37 41 52 7 15 27 35 44 44 56 28
150 101 174 134 13 17 49 49 82 71 102 68 108 72 128 90 28 25 198 109 232
115 15 3 37 14 48 24 11 11 51 29 87 40 37 11 70 26 74 32 5 8 10 5 15 -8 4
-10 7 82 7 206 -1 124 -3 212 -5 197 -4 -27 -7 -28 -41 -23 -20 3 -77 8 -127
11 -49 4 -119 13 -155 21 -76 16 -171 31 -255 39 -92 9 -184 24 -250 41 -120
31 -331 97 -375 118 -25 12 -74 30 -110 40 -59 16 -186 55 -435 133 -89 28
-93 28 -345 28 -140 -1 -273 -4 -295 -8 -94 -17 -116 -19 -149 -13 -27 5 -37
13 -42 32 -7 29 17 99 49 142 107 145 144 204 187 296 21 44 41 92 45 106 4
14 13 34 19 45 7 11 22 45 34 75 11 30 38 91 61 135 32 63 47 112 71 235 20
97 46 191 70 252 23 57 45 135 54 191 9 52 23 121 31 153 9 33 20 95 25 139 6
44 12 91 14 105 3 14 10 61 16 105 14 102 42 190 79 252 23 37 33 73 46 158 9
61 30 148 47 195 16 47 38 117 48 155 10 39 39 112 65 163 26 51 53 120 61
154 8 33 30 96 49 139 19 43 48 129 66 191 17 62 43 127 56 145 13 18 34 74
48 125 28 109 34 125 79 221 19 40 44 93 56 119 11 26 34 63 51 84 16 20 29
48 29 62 0 13 7 45 17 71 18 51 13 95 -13 105 -26 10 -99 -14 -136 -44 -19
-15 -47 -48 -64 -72 -16 -23 -44 -63 -63 -88 -19 -25 -43 -63 -53 -85 -10 -22
-39 -67 -63 -100 -25 -33 -57 -80 -72 -105 -49 -84 -111 -175 -138 -205 -15
-16 -39 -49 -53 -71 -22 -33 -148 -174 -274 -305 -9 -10 -24 -29 -33 -42 -9
-14 -31 -36 -50 -49 -19 -12 -36 -28 -37 -34 -6 -21 -111 -106 -164 -131 -30
-14 -57 -29 -60 -34 -3 -5 -14 -9 -25 -9 -11 0 -30 -7 -43 -15 -12 -8 -55 -26
-94 -39 -40 -14 -85 -34 -101 -45 -16 -11 -59 -37 -97 -57 -38 -20 -76 -42
-85 -50 -8 -8 -20 -14 -26 -14 -6 0 -24 -6 -40 -14 -15 -7 -50 -24 -78 -37
-27 -13 -75 -40 -105 -61 -31 -20 -67 -41 -80 -46 -14 -6 -57 -37 -95 -69 -39
-33 -85 -64 -102 -70 -17 -6 -56 -31 -86 -55 -30 -24 -108 -81 -173 -128 -66
-47 -153 -112 -194 -146 -41 -33 -95 -74 -120 -89 -25 -16 -64 -49 -88 -73
-24 -24 -65 -59 -90 -78 -50 -37 -78 -73 -194 -244 -75 -112 -119 -197 -137
-270 -34 -133 -122 -225 -169 -178 -19 19 -14 53 22 141 19 46 37 107 41 137
3 30 13 105 22 167 15 106 14 339 -1 468 -3 22 -8 65 -11 95 -17 147 -62 303
-126 437 -21 46 -39 91 -39 101 0 10 -18 90 -39 178 -22 87 -41 173 -44 189
-9 57 -29 119 -53 165 -29 56 -43 126 -50 255 -6 117 -18 202 -46 340 -18 84
-20 120 -15 235 4 74 8 144 10 155 3 11 8 46 12 79 7 63 9 72 30 191 8 44 17
100 20 125 12 105 18 138 36 199 11 36 23 69 28 75 11 14 31 98 31 130 0 18 6
26 23 29 12 2 -52 4 -143 4 -91 0 -155 -2 -142 -4z"/>
<path d="M2 68 c-2 -64 -1 -68 20 -68 19 0 20 1 5 18 -9 9 -17 40 -20 67 -3
45 -4 43 -5 -17z"/>
</g>
</svg>
